<svg preserveAspectRatio="none" width="100%" height="100%" overflow="visible" style="display: block;" viewBox="0 0 20 17" fill="none" xmlns="http://www.w3.org/2000/svg">
<path id="Democratic Party Icon" d="M19.988 7.1069C19.8838 6.71658 19.6434 5.88178 19.0035 4.11747C18.7896 3.52879 18.499 3.15853 18.2067 2.92647C18.1223 2.8595 17.9272 2.68759 17.7061 2.4069C16.8381 1.30634 15.527 -0.142303 15.2176 0.0112638C14.9081 0.16483 15.3474 1.46375 15.9694 2.87997C15.9912 2.92988 16.0006 3.04207 15.9222 3.08558C15.8622 3.11843 12.6811 4.72235 11.8723 5.04484C11.0639 5.36775 9.87153 5.8532 8.27111 5.8532C7.32217 5.8532 6.23907 5.69494 5.47272 5.57933C3.2058 5.23765 1.69067 6.33906 0.900746 8.2996C0.658153 8.90192 0.408274 9.52173 0.0923889 9.90821C-0.00233369 10.0242 -0.0314791 10.0767 0.0392414 10.1539C0.151108 10.2768 0.341839 10.4824 0.429704 10.5639C0.559144 10.6833 0.610149 10.6398 0.698442 10.5408C1.0649 10.1279 1.32807 9.55842 1.56852 8.97444C1.66538 8.73982 1.74425 8.83239 1.74425 8.97614V17H3.71971V12.9872H12.1179V17H14.098V10.6795H14.0985V9.57079L16.7383 6.86204L18.6096 7.94C19.1509 8.23391 20.1187 7.5966 19.988 7.1069ZM9.76824 8.306L10.3931 8.27742C10.4463 8.27528 10.5054 8.2322 10.5239 8.18272L10.7403 7.60343C10.7588 7.55352 10.7892 7.55352 10.808 7.60343L11.0253 8.18272C11.0442 8.23263 11.1029 8.27528 11.1565 8.27742L11.7801 8.306C11.8337 8.30856 11.8427 8.33756 11.8007 8.37083L11.3117 8.75262C11.2697 8.78547 11.2469 8.85457 11.2611 8.90576L11.4291 9.50851C11.4437 9.5597 11.4188 9.57719 11.3747 9.54775L10.8548 9.19967C10.8102 9.17024 10.7378 9.17024 10.6936 9.19967L10.1724 9.54775C10.1283 9.57761 10.1034 9.5597 10.118 9.50851L10.2869 8.90576C10.301 8.85457 10.2787 8.78589 10.2367 8.75347L9.74681 8.37083C9.7048 8.33799 9.71423 8.30898 9.76738 8.30685L9.76824 8.306ZM6.97028 8.306L7.59519 8.27742C7.64877 8.27528 7.70748 8.2322 7.72591 8.18272L7.94279 7.60343C7.96122 7.55352 7.99208 7.55352 8.01051 7.60343L8.22782 8.18272C8.24667 8.23263 8.30539 8.27528 8.35854 8.27742L8.98217 8.306C9.03532 8.30856 9.04474 8.33756 9.00274 8.37083L8.51413 8.75262C8.47212 8.78547 8.44941 8.85457 8.46355 8.90576L8.63157 9.50851C8.64571 9.5597 8.62128 9.57719 8.57713 9.54775L8.05723 9.19967C8.01308 9.17024 7.94022 9.17024 7.89607 9.19967L7.37488 9.54775C7.33074 9.57761 7.30588 9.5597 7.32045 9.50851L7.48975 8.90576C7.5039 8.85457 7.48161 8.78589 7.4396 8.75347L6.9497 8.37083C6.9077 8.33799 6.91713 8.30898 6.97028 8.30685V8.306ZM4.17232 8.306L4.79723 8.27742C4.85081 8.27528 4.90953 8.2322 4.92796 8.18272L5.14483 7.60343C5.16326 7.55352 5.19412 7.55352 5.21255 7.60343L5.43029 8.18272C5.44914 8.23263 5.50786 8.27528 5.56144 8.27742L6.18507 8.306C6.23821 8.30856 6.24764 8.33756 6.20564 8.37083L5.71702 8.75262C5.67502 8.78547 5.6523 8.85457 5.66645 8.90576L5.83446 9.50851C5.84861 9.5597 5.82418 9.57719 5.78003 9.54775L5.26013 9.19967C5.21555 9.17024 5.14312 9.17024 5.09897 9.19967L4.57778 9.54775C4.53364 9.57761 4.50878 9.5597 4.52335 9.50851L4.69265 8.90576C4.70679 8.85457 4.68451 8.78589 4.6425 8.75347L4.1526 8.37083C4.1106 8.33799 4.12003 8.30898 4.17318 8.30685L4.17232 8.306Z" fill="var(--fill-0, #4771FF)"/>
</svg>
