<svg width="8" height="16" viewBox="0 0 7.11581 15.0265" fill="none" xmlns="http://www.w3.org/2000/svg">
<path id="Vector" d="M0.250502 2.7097H1.31617C1.45628 2.7097 1.57092 2.59503 1.57092 2.45487V0.254831C1.57092 0.114674 1.68555 0 1.82566 0H4.44526C4.58537 0 4.7 0.114674 4.7 0.254831V2.45487C4.7 2.59503 4.81464 2.7097 4.95475 2.7097H6.85683C6.99693 2.7097 7.11156 2.82438 7.11156 2.96454V5.11361C7.11156 5.25377 6.99693 5.36844 6.85683 5.36844H4.95475C4.81464 5.36844 4.7 5.48312 4.7 5.62327V10.516C4.7 11.7477 4.94625 12.2659 6.10533 12.2659H6.86107C7.00118 12.2659 7.11581 12.3805 7.11581 12.5207V14.7717C7.11581 14.9119 7.00118 15.0265 6.86107 15.0265H5.78691C2.80642 15.0265 1.57516 14.1898 1.57516 11.013V5.62752C1.57516 5.48736 1.46052 5.37269 1.32042 5.37269H0.254745C0.114637 5.37269 0 5.25802 0 5.11786V2.96878C0 2.82863 0.114637 2.71395 0.254745 2.71395L0.250502 2.7097Z" fill="var(--fill-0, #F34E49)"/>
</svg>
