<svg width="72" height="20" viewBox="0 0 71.3916 20" fill="none" xmlns="http://www.w3.org/2000/svg">
<g id="g5330">
<path id="path5077" d="M29.2996 10.6307H27.2999C26.3446 10.6307 25.7545 11.2296 25.7545 11.9303C25.7545 12.6311 26.2852 13.0728 27.2192 13.0728C28.2382 13.0728 28.9175 12.5929 29.2996 12.1979V10.6307ZM29.2996 15.0053C28.2637 15.5362 27.6056 15.8802 26.4041 15.8802C24.0986 15.8802 22.5999 14.2621 22.5999 12.1385C22.5999 9.75154 24.5742 8.3075 26.8626 8.3075H29.3039V7.91251C29.3039 6.77851 28.5269 6.18815 27.6226 6.18815C26.4211 6.18815 25.1006 6.62561 24.4808 6.86345C24.3831 6.90168 24.2812 6.89318 24.1878 6.85071C24.0944 6.80399 24.0265 6.7233 23.9968 6.62986L23.4066 4.74411C23.3514 4.56148 23.4406 4.36611 23.6189 4.2939C24.2897 4.01784 25.9158 3.40624 27.2702 3.40624C30.7474 3.40624 32.4372 4.8248 32.4372 8.14186V15.3918C32.4372 15.5957 32.2716 15.7613 32.0678 15.7613H29.8219C29.6605 15.7613 29.5204 15.6594 29.4695 15.5065L29.3081 15.0096L29.2996 15.0053Z" fill="var(--fill-0, #F34E49)"/>
<path id="path5081" d="M37.133 15.7613C37.3368 15.7613 37.5023 15.5957 37.5023 15.3918V7.14377C38.1944 6.65109 38.9162 6.31981 39.6846 6.31981C40.5253 6.31981 40.9541 6.95689 40.9541 8.12062V15.3961C40.9541 15.5999 41.1197 15.7656 41.3235 15.7656H43.7138C43.9176 15.7656 44.0832 15.5999 44.0832 15.3961V7.67891C44.0832 5.09238 42.7161 3.41049 40.3597 3.41049C39.3577 3.41049 38.4449 3.68231 37.4981 4.28541L37.3537 3.79698C37.307 3.63984 37.1627 3.52941 36.9971 3.52941H34.7341C34.5303 3.52941 34.3648 3.69505 34.3648 3.89892V15.3918C34.3648 15.5957 34.5303 15.7613 34.7341 15.7613H37.1287H37.133Z" fill="var(--fill-0, #F34E49)"/>
<path id="path5085" d="M67.9526 14.1346C67.9526 13.213 68.6956 12.4485 69.6594 12.4485C70.6232 12.4485 71.3916 13.213 71.3916 14.1346C71.3916 15.0563 70.7335 15.9312 69.6848 15.9312C68.6998 15.9312 67.9526 15.12 67.9526 14.1346Z" fill="var(--fill-0, #F34E49)"/>
<path id="path5093" d="M60.5566 8.59206V8.04417C60.5566 7.0928 61.3293 6.31981 62.2803 6.31981C63.2314 6.31981 64.0083 7.0928 64.0083 8.04417V8.59206H60.5566ZM62.2803 3.402C59.5673 3.402 57.4275 4.93098 57.4275 7.89127V11.3952C57.4275 14.3555 59.5758 15.8845 62.2888 15.8845C63.5286 15.8845 65.1249 15.6891 65.8043 15.5999C65.9953 15.5744 66.1312 15.4088 66.1227 15.2177L66.0378 13.1493C66.0335 13.0474 65.9868 12.9497 65.9104 12.8817C65.834 12.818 65.7321 12.784 65.6302 12.7968C64.9763 12.869 63.6092 13.0006 62.2846 13.0006C61.3293 13.0006 60.5608 12.2276 60.5608 11.2763V11.0384H66.7765C66.9803 11.0384 67.1459 10.8728 67.1459 10.6689V7.89977C67.1459 4.93948 64.9976 3.41049 62.2846 3.41049" fill="var(--fill-0, #F34E49)"/>
<path id="path5097" d="M50.2989 12.4782C49.4583 12.4782 49.0295 11.8412 49.0295 10.6774V8.11213C49.0295 6.9484 49.4625 6.31132 50.2989 6.31132C51.0674 6.31132 51.7892 6.6426 52.4812 7.13527V11.65C51.7892 12.1427 51.0674 12.474 50.2989 12.474M52.9737 3.52941C52.8124 3.52941 52.6723 3.63134 52.6213 3.78424L52.46 4.28116C51.5132 3.67806 50.6258 3.40624 49.6238 3.40624C47.2675 3.40624 45.9004 5.08813 45.9004 7.67467V11.1276C45.9004 13.7142 47.2675 15.3961 49.6238 15.3961C50.6258 15.3961 51.5387 15.1242 52.4855 14.5211V15.3833C52.4855 16.3347 51.7127 17.1119 50.7575 17.1119C49.4285 17.1119 48.0614 16.9803 47.4118 16.908C47.3099 16.8953 47.208 16.9293 47.1316 16.9972C47.0552 17.0652 47.0085 17.1586 47.0042 17.2648L46.9193 19.3332C46.9108 19.5243 47.0509 19.69 47.242 19.7154C47.9256 19.8046 49.5177 20 50.7575 20C53.4705 20 55.6188 18.471 55.6188 15.5107V3.89892C55.6188 3.69505 55.4532 3.52941 55.2494 3.52941H52.978H52.9737Z" fill="var(--fill-0, #F34E49)"/>
<path id="path5109" d="M17.3098 3.40624C16.3078 3.40624 15.3949 3.67806 14.4482 4.28116V0.369505C14.4482 0.16564 14.2826 0 14.0788 0H11.6884C11.4846 0 11.3191 0.16564 11.3191 0.369505V15.3876C11.3191 15.5914 11.4846 15.7571 11.6884 15.7571H14.0788C14.2826 15.7571 14.4482 15.5914 14.4482 15.3876V7.13952C15.1402 6.64685 15.862 6.31557 16.6304 6.31557C17.4711 6.31557 17.8999 6.95264 17.8999 8.11637V15.3918C17.8999 15.5957 18.0655 15.7613 18.2693 15.7613H20.6596C20.8634 15.7613 21.029 15.5957 21.029 15.3918V7.67467C21.029 5.08813 19.6619 3.40624 17.3055 3.40624" fill="var(--fill-0, #F34E49)"/>
<path id="path5149" d="M9.71418 11.4971C9.70569 11.4249 9.67597 11.357 9.62502 11.306C9.56134 11.2423 9.47218 11.2041 9.37877 11.2041H6.91202C6.74643 11.2041 6.60632 11.3145 6.5766 11.4674C6.56811 11.5141 6.54688 11.6203 6.54264 11.6288C6.37706 12.4103 5.68501 12.9964 4.85285 12.9964C3.90181 12.9964 3.12484 12.2234 3.12484 11.272V8.03992C3.12484 7.08855 3.89756 6.31557 4.85285 6.31557C5.60009 6.31557 6.2327 6.787 6.47471 7.44957C6.50867 7.55999 6.53839 7.67467 6.55962 7.79359C6.56387 7.82332 6.57236 7.85305 6.5766 7.88278C6.59359 7.98046 6.65727 8.05267 6.74219 8.09938C6.79314 8.12911 6.84833 8.1461 6.91202 8.1461H9.37453C9.43821 8.1461 9.49765 8.12911 9.5486 8.09938C9.57408 8.0824 9.59955 8.06541 9.62078 8.04417C9.68022 7.98471 9.70994 7.90826 9.70994 7.82332C9.70994 7.81482 9.70994 7.79359 9.70994 7.78934C9.66324 4.89276 7.53189 3.39775 4.85285 3.39775C4.8486 3.39775 4.84011 3.39775 4.83586 3.39775C2.13135 3.40624 0 4.93098 0 7.88702V11.391C0 14.3512 2.14833 15.8802 4.86134 15.8802C5.79964 15.8802 6.67001 15.6934 7.40452 15.3323C7.88428 15.0987 8.30461 14.7887 8.65276 14.4065C9.26414 13.7312 9.6505 12.8223 9.70569 11.6925C9.70569 11.6713 9.71418 11.5099 9.70994 11.4971" fill="var(--fill-0, #F34E49)"/>
</g>
</svg>
