<svg width="10" height="13" viewBox="0 0 9.71843 12.4825" fill="none" xmlns="http://www.w3.org/2000/svg">
<path id="path5093" d="M3.13334 5.18582V4.63793C3.13334 3.68656 3.90605 2.91357 4.85709 2.91357C5.80813 2.91357 6.5851 3.68656 6.5851 4.63793V5.18582H3.13334ZM4.85285 0C2.13984 0 0 1.52899 0 4.48928V7.9932C0 10.9535 2.14833 12.4825 4.86134 12.4825C6.10109 12.4825 7.69748 12.2871 8.37679 12.1979C8.56785 12.1724 8.7037 12.0068 8.69521 11.8157L8.61031 9.74729C8.60606 9.64536 8.55935 9.54768 8.48293 9.47972C8.4065 9.41601 8.30461 9.38204 8.20271 9.39478C7.54888 9.46698 6.18175 9.59864 4.85709 9.59864C3.90181 9.59864 3.13334 8.82565 3.13334 7.87428V7.63644H9.34905C9.55285 7.63644 9.71843 7.4708 9.71843 7.26694V4.49777C9.71843 1.53748 7.5701 0.00849457 4.85709 0.00849457" fill="var(--fill-0, #F34E49)"/>
</svg>
