<svg preserveAspectRatio="none" width="100%" height="100%" overflow="visible" style="display: block;" viewBox="0 0 12 10.6667" fill="none" xmlns="http://www.w3.org/2000/svg">
<path id="Vector" d="M9.33333 0L12 2.66667L9.33333 5.33333V3.33333H6.66667V2H9.33333V0ZM4.66667 2C4.3 2 4 2.3 4 2.66667C4 3.03333 4.3 3.33333 4.66667 3.33333C5.03333 3.33333 5.33333 3.03333 5.33333 2.66667C5.33333 2.3 5.03333 2 4.66667 2ZM2 2C1.63333 2 1.33333 2.3 1.33333 2.66667C1.33333 3.03333 1.63333 3.33333 2 3.33333C2.36667 3.33333 2.66667 3.03333 2.66667 2.66667C2.66667 2.3 2.36667 2 2 2ZM2.66667 8.66667H5.33333V7.33333H2.66667V5.33333L0 8L2.66667 10.6667V8.66667ZM7.33333 8.66667C7.7 8.66667 8 8.36667 8 8C8 7.63333 7.7 7.33333 7.33333 7.33333C6.96667 7.33333 6.66667 7.63333 6.66667 8C6.66667 8.36667 6.96667 8.66667 7.33333 8.66667ZM10 8.66667C10.3667 8.66667 10.6667 8.36667 10.6667 8C10.6667 7.63333 10.3667 7.33333 10 7.33333C9.63333 7.33333 9.33333 7.63333 9.33333 8C9.33333 8.36667 9.63333 8.66667 10 8.66667Z" fill="var(--fill-0, #0D4DFB)"/>
</svg>
