<svg preserveAspectRatio="none" width="100%" height="100%" overflow="visible" style="display: block;" viewBox="0 0 20 15" fill="none" xmlns="http://www.w3.org/2000/svg">
<path id="Republican Party Icon" d="M13.5703 0C17.1212 0 20.0001 2.80918 20 6.27441V14.6855C19.9998 14.8592 19.8557 14.9998 19.6777 15H15.9473C15.7692 15 15.6242 14.8593 15.624 14.6855V11.0176H9.2207V14.6855C9.2205 14.8593 9.07554 15 8.89746 15H5.17676C4.99889 14.9998 4.8547 14.8591 4.85449 14.6855V9.13379C4.85449 8.91658 4.67389 8.74023 4.45117 8.74023C4.22858 8.74038 4.04785 8.91653 4.04785 9.13379V10.5869C4.05236 10.8848 3.96388 11.2012 3.89062 11.3945C3.77355 11.7038 3.38605 12.8711 1.89648 12.8711C1.27136 12.8711 0.797301 12.6588 0.479492 12.3564C0.161908 12.0541 8.59985e-05 11.662 0 11.3027V10.4971C0.000175851 10.4156 0.0678948 10.3497 0.151367 10.3496H1.19824C1.28169 10.3497 1.34943 10.4156 1.34961 10.4971V10.8877C1.34961 11.1204 1.54606 11.3081 1.78613 11.3018C2.01745 11.2956 2.19922 11.1048 2.19922 10.8789V6.27441C2.19936 2.80918 5.07787 0 8.62891 0H13.5703ZM7.68848 3.47754H6.76465L7.51172 4.02246L7.22656 4.9043L7.97461 4.35938L8.72168 4.9043L8.43652 4.02246L9.18359 3.47754H8.25977L7.97461 2.5957L7.68848 3.47754ZM10.8906 3.47754H9.9668L10.7148 4.02246L10.4287 4.9043L11.1768 4.35938L11.9238 4.9043L11.6387 4.02246L12.3857 3.47754H11.4619L11.1768 2.5957L10.8906 3.47754ZM14.0938 3.47754H13.1699L13.917 4.02246L13.6318 4.9043L14.3789 4.35938L15.126 4.9043L14.8408 4.02246L15.5879 3.47754H14.6641L14.3789 2.5957L14.0938 3.47754Z" fill="var(--fill-0, #F34E49)"/>
</svg>
