<svg width="24" height="24" viewBox="0 0 24 24" fill="none" xmlns="http://www.w3.org/2000/svg">
<path id="Vector" d="M24 3.3663C23.9996 2.47336 23.6446 1.61714 23.0131 0.985875C22.3815 0.354615 21.5252 -8.85687e-08 20.6322 0H3.3678C2.47487 -8.85687e-08 1.61848 0.354615 0.986937 0.985875C0.355395 1.61714 0.00039819 2.47336 4.81071e-07 3.3663V20.6304C-0.000235979 21.0728 0.0867003 21.5109 0.255842 21.9198C0.424984 22.3286 0.673017 22.7 0.98577 23.013C1.29852 23.3259 1.66987 23.5741 2.07858 23.7435C2.4873 23.9128 2.92539 24 3.3678 24H20.6322C21.0746 24 21.5127 23.9128 21.9214 23.7435C22.3302 23.5741 22.7015 23.3259 23.0142 23.013C23.327 22.7 23.575 22.3286 23.7442 21.9198C23.9133 21.5109 24.0003 21.0728 24 20.6304V3.3663ZM10.8416 15.0129C11.2426 15.012 11.6313 14.8739 11.9429 14.6214C12.2544 14.3689 12.4701 14.0173 12.554 13.6251C12.5555 13.6185 12.5801 13.5051 12.5888 13.455C12.605 13.3769 12.6476 13.3068 12.7096 13.2566C12.7715 13.2064 12.849 13.1792 12.9287 13.1796H15.4298C15.5244 13.1815 15.6143 13.2208 15.68 13.2888C15.7316 13.3425 15.7634 13.4123 15.77 13.4865C15.77 13.503 15.7658 13.6665 15.764 13.6887C15.7058 14.8353 15.3167 15.7554 14.6957 16.4415C14.3371 16.8329 13.9071 17.1523 13.4288 17.3826C12.6812 17.7507 11.807 17.94 10.8542 17.94C8.10321 17.94 5.93001 16.3896 5.93001 13.3872V9.8349C5.93001 6.84 8.08551 5.2899 10.8281 5.2824H10.844C13.5656 5.2824 15.725 6.7998 15.7721 9.7377V9.771C15.7722 9.81248 15.7641 9.85357 15.7483 9.89193C15.7325 9.93028 15.7093 9.96514 15.68 9.9945C15.6581 10.0146 15.6336 10.0316 15.6071 10.0452C15.5528 10.0751 15.4918 10.0905 15.4298 10.0899H12.9329C12.8732 10.0899 12.8145 10.0745 12.7625 10.0452C12.72 10.0235 12.6828 9.99255 12.6539 9.95459C12.6249 9.91663 12.6048 9.87265 12.5951 9.8259C12.5894 9.7959 12.5828 9.7659 12.5762 9.7359C12.5519 9.6159 12.5228 9.4983 12.4886 9.3858C12.3465 8.99874 12.0729 8.67396 11.7155 8.46825C11.3582 8.26255 10.9399 8.18902 10.5338 8.26051C10.1277 8.33201 9.75972 8.54399 9.49413 8.85938C9.22853 9.17476 9.08227 9.57348 9.08091 9.9858V13.227C9.08001 14.196 9.87291 15.015 10.8416 15.0129ZM18.5729 17.94C17.5727 17.94 16.8176 17.1177 16.8176 16.1184C16.8176 15.1845 17.5727 14.4084 18.5507 14.4084C19.5509 14.4084 20.3063 15.1854 20.3063 16.1184C20.3072 17.0955 19.6409 17.94 18.5729 17.94Z" fill="var(--fill-0, #F34E49)"/>
</svg>
